<svg width="25" height="25" viewBox="0 0 25 25" fill="none" xmlns="http://www.w3.org/2000/svg">
    <path d="M13.342 13.038C13.608 13.197 13.79 13.399 13.9 13.641C14.001 13.879 14.023 14.148 13.969 14.455C13.899 14.819 13.741 15.1 13.493 15.328C13.241 15.547 12.965 15.672 12.659 15.698C12.354 15.727 11.983 15.698 11.541 15.622L10.786 15.476C10.534 15.433 10.384 15.385 10.33 15.35C10.279 15.314 10.247 15.259 10.235 15.184C10.229 15.133 10.252 14.936 10.302 14.624L10.721 12.387L12.063 12.635C12.652 12.745 13.075 12.876 13.342 13.038ZM13.965 8.91801C14.211 9.05701 14.381 9.22801 14.481 9.44201C14.583 9.66001 14.608 9.90401 14.555 10.176C14.506 10.442 14.386 10.661 14.211 10.831C14.028 11.004 13.789 11.114 13.487 11.154C13.183 11.202 12.732 11.172 12.141 11.063L11.003 10.849L11.476 8.32701L12.61 8.53901C13.277 8.66201 13.727 8.79101 13.965 8.91801ZM12.027 0.0620119C18.654 0.0610119 24.029 5.43201 24.029 12.063C24.029 18.69 18.654 24.062 12.027 24.062C5.40102 24.062 0.0280151 18.69 0.0280151 12.063C0.0280151 5.43101 5.40202 0.0620119 12.027 0.0620119ZM17.134 10.264C17.225 9.79601 17.171 9.33601 16.966 8.89001C16.76 8.44501 16.419 8.07301 15.949 7.76101C15.769 7.63801 15.539 7.53501 15.289 7.43601L15.63 5.61401L13.878 5.28701L13.559 6.98901L12.433 6.77701L12.753 5.07701L10.999 4.74601L10.676 6.45601L8.00102 5.95201L7.73402 7.38301L8.14402 7.46601C8.41502 7.50801 8.59902 7.57201 8.68301 7.64301C8.77102 7.70601 8.82602 7.78401 8.85002 7.87701C8.87302 7.97101 8.85902 8.17301 8.79902 8.47601L7.71902 14.249C7.66502 14.549 7.61102 14.742 7.55202 14.82C7.49702 14.895 7.41702 14.951 7.31102 14.978C7.20402 15.013 7.01801 15.002 6.74602 14.944L6.33402 14.872L6.06802 16.303L8.73902 16.804L8.42302 18.511L10.176 18.839L10.493 17.136L11.493 17.321C11.537 17.329 11.578 17.329 11.622 17.345L11.303 19.052L13.056 19.375L13.405 17.529C13.705 17.525 13.979 17.498 14.217 17.455C14.868 17.329 15.403 17.064 15.821 16.654C16.236 16.263 16.498 15.787 16.601 15.238C16.686 14.774 16.654 14.34 16.508 13.926C16.358 13.508 16.116 13.165 15.785 12.889C15.557 12.691 15.209 12.483 14.751 12.273C15.229 12.204 15.629 12.074 15.948 11.894C16.269 11.714 16.531 11.476 16.733 11.201C16.937 10.915 17.072 10.603 17.134 10.264Z" fill="#8A8A8F"/>
</svg>
