<svg width="48" height="48" viewBox="0 0 48 48" fill="none" xmlns="http://www.w3.org/2000/svg">
    <path fill-rule="evenodd" clip-rule="evenodd" d="M24 4C12.9543 4 4 12.9543 4 24C4 35.0457 12.9543 44 24 44C35.0457 44 44 35.0457 44 24C44 12.9543 35.0457 4 24 4ZM8.12379 22C9.10801 14.1074 15.8408 8 24 8C32.1592 8 38.892 14.1074 39.8762 22H34.1085L29.696 14.9401C29.3126 14.3266 28.6277 13.968 27.9051 14.0023C27.1824 14.0367 26.5347 14.4586 26.2111 15.1056L19.806 27.9159L16.696 22.94C16.3305 22.3552 15.6896 22 15 22H8.12379ZM8.12378 26C9.10796 33.8926 15.8407 40 24 40C32.1592 40 38.892 33.8926 39.8762 26H33C32.3104 26 31.6695 25.6447 31.304 25.06L28.194 20.0841L21.7889 32.8944C21.4653 33.5415 20.8176 33.9634 20.0949 33.9977C19.3723 34.0321 18.6874 33.6735 18.304 33.06L13.8915 26H8.12378Z" fill="#FFA800"/>
</svg>
