<svg width="20" height="20" viewBox="0 0 20 20" fill="none" xmlns="http://www.w3.org/2000/svg">
    <path fill-rule="evenodd" clip-rule="evenodd" d="M14.42 10.8303C14.7129 11.1231 14.7129 11.598 14.42 11.8909L10.6556 15.6553L10.5299 15.7807C10.2367 16.0732 9.76183 16.0727 9.46927 15.7795L9.34522 15.6552L5.581 11.891C5.2881 11.5981 5.28811 11.1232 5.581 10.8303C5.87389 10.5374 6.34877 10.5374 6.64166 10.8303L9.25022 13.4389L9.25042 4.74959C9.25052 4.33538 9.58638 3.99966 10.0006 3.99976C10.4148 3.99985 10.7505 4.33571 10.7504 4.74992L10.7502 13.4394L13.3593 10.8303C13.6522 10.5374 14.1271 10.5374 14.42 10.8303Z" fill="#808085"/>
</svg>
