<svg width="20" height="20" viewBox="0 0 20 20" fill="none" xmlns="http://www.w3.org/2000/svg">
    <path fill-rule="evenodd" clip-rule="evenodd" d="M5.58075 9.16951C5.28786 8.87661 5.28786 8.40174 5.58075 8.10885L9.34511 4.3445L9.47083 4.21906C9.76406 3.92651 10.2389 3.92705 10.5315 4.22026L10.6555 4.34459L14.4197 8.10878C14.7126 8.40167 14.7126 8.87654 14.4197 9.16944C14.1269 9.46233 13.652 9.46233 13.3591 9.16944L10.7505 6.5609L10.7503 15.2502C10.7502 15.6644 10.4144 16.0001 10.0002 16C9.58594 15.9999 9.25023 15.6641 9.25032 15.2498L9.25052 6.5604L6.64141 9.16951C6.34852 9.4624 5.87365 9.4624 5.58075 9.16951Z" fill="#808085"/>
</svg>
