<svg width="20" height="21" viewBox="0 0 20 21" fill="none" xmlns="http://www.w3.org/2000/svg">
    <path d="M10.8334 3.83333C10.8334 3.3731 10.4603 3 10.0001 3C9.53984 3 9.16675 3.3731 9.16675 3.83333V17.1667C9.16675 17.6269 9.53984 18 10.0001 18C10.4603 18 10.8334 17.6269 10.8334 17.1667V3.83333Z" fill="#808085"/>
    <path d="M15.0001 8C15.4603 8 15.8334 8.3731 15.8334 8.83333V17.1667C15.8334 17.6269 15.4603 18 15.0001 18C14.5398 18 14.1667 17.6269 14.1667 17.1667V8.83333C14.1667 8.3731 14.5398 8 15.0001 8Z" fill="#808085"/>
    <path d="M5.00008 11.3333C5.46032 11.3333 5.83341 11.7064 5.83341 12.1667V17.1667C5.83341 17.6269 5.46032 18 5.00008 18C4.53984 18 4.16675 17.6269 4.16675 17.1667V12.1667C4.16675 11.7064 4.53984 11.3333 5.00008 11.3333Z" fill="#808085"/>
</svg>
