<svg width="20" height="20" viewBox="0 0 20 20" fill="#808085" xmlns="http://www.w3.org/2000/svg">
    <path fill-rule="evenodd" clip-rule="evenodd" d="M2 4C2 2.89543 2.89543 2 4 2H11C12.1046 2 13 2.89543 13 4V11C13 12.1046 12.1046 13 11 13H4C2.89543 13 2 12.1046 2 11V4ZM4 3.5H11C11.2761 3.5 11.5 3.72386 11.5 4V11C11.5 11.2761 11.2761 11.5 11 11.5H4C3.72386 11.5 3.5 11.2761 3.5 11V4C3.5 3.72386 3.72386 3.5 4 3.5Z" />
    <path d="M15.25 7C14.8358 7 14.5 7.33579 14.5 7.75C14.5 8.16421 14.8358 8.5 15.25 8.5C15.9404 8.5 16.5 9.05964 16.5 9.75V15.25C16.5 15.9404 15.9404 16.5 15.25 16.5H9.75C9.05964 16.5 8.5 15.9404 8.5 15.25C8.5 14.8358 8.16421 14.5 7.75 14.5C7.33579 14.5 7 14.8358 7 15.25C7 16.7688 8.23122 18 9.75 18H15.25C16.7688 18 18 16.7688 18 15.25V9.75C18 8.23122 16.7688 7 15.25 7Z" />
</svg>
