<svg width="20" height="20" viewBox="0 0 20 20" fill="none" xmlns="http://www.w3.org/2000/svg">
    <path fill-rule="evenodd" clip-rule="evenodd" d="M14.8982 3.32702C14.886 3.32484 14.8655 3.32364 14.8336 3.33282C14.5 3.42864 13.9808 3.64948 13.2583 4.15069C13.0979 4.26191 12.8963 4.2955 12.7085 4.24225C12.0206 4.04709 11.2785 3.94761 10.537 3.94407C9.79493 3.94761 9.05293 4.04711 8.36632 4.24218C8.17861 4.29551 7.97688 4.26198 7.81651 4.15081C7.09373 3.64973 6.57408 3.42885 6.24009 3.33294C6.20799 3.32373 6.18735 3.32492 6.17504 3.32713C6.16198 3.32948 6.14702 3.33507 6.13012 3.34726C6.09522 3.37242 6.04609 3.43212 6.02759 3.53691C5.89396 4.29388 6.07587 4.81372 6.12233 4.93099C6.21329 5.16057 6.16677 5.42184 6.00217 5.60592C5.50563 6.16123 5.20223 6.86451 5.20223 7.74768C5.20223 9.44899 5.70229 10.3724 6.33133 10.9141C6.98927 11.4807 7.89756 11.7274 8.8993 11.8438C9.15403 11.8735 9.36777 12.0496 9.44549 12.294C9.52321 12.5384 9.45049 12.8056 9.25965 12.977C9.12731 13.0958 8.94286 13.3664 8.87451 13.8639C8.82549 14.2208 8.49648 14.4703 8.13964 14.4213C7.78281 14.3723 7.53328 14.0432 7.5823 13.6864C7.61776 13.4283 7.67713 13.1905 7.75642 12.9749C6.96068 12.7961 6.15361 12.4824 5.48016 11.9024C4.49308 11.0524 3.89788 9.72487 3.89788 7.74768C3.89788 6.67966 4.22945 5.76898 4.78872 5.02937C4.69257 4.64409 4.61295 4.04744 4.7431 3.31016C4.88564 2.50272 5.64619 1.80536 6.60008 2.07926C7.04574 2.20722 7.61076 2.45466 8.30698 2.90882C9.02898 2.73132 9.78511 2.64304 10.5341 2.63972L10.5399 2.6397V2.63972C11.2886 2.64304 12.0447 2.73136 12.7674 2.90885C13.4633 2.4546 14.028 2.20714 14.4734 2.07918C15.4265 1.80535 16.1863 2.50197 16.3294 3.30815L15.6873 3.42214L16.3294 3.30815C16.4604 4.04617 16.381 4.64346 16.2848 5.0291C16.8451 5.76966 17.1739 6.6807 17.1739 7.74768C17.1739 9.729 16.578 11.0568 15.588 11.9049C14.9145 12.4818 14.1077 12.7925 13.3121 12.9693C13.4485 13.3378 13.5266 13.7717 13.5266 14.2619C13.5266 14.9055 13.5239 15.4867 13.5211 15.946C13.5202 16.1033 13.5193 16.2456 13.5184 16.371C13.5175 16.5175 13.5167 16.6409 13.5162 16.7382C13.5228 16.7374 13.5302 16.7363 13.5384 16.7347C13.8918 16.6652 14.2347 16.8954 14.3042 17.2488C14.3737 17.6022 14.1435 17.945 13.7901 18.0146C13.012 18.1676 12.2113 17.6604 12.2113 16.8956C12.2113 16.7892 12.2125 16.6022 12.2142 16.3549C12.215 16.2304 12.2159 16.0907 12.2168 15.9382C12.2195 15.4802 12.2223 14.9019 12.2223 14.2619C12.2223 13.5065 11.9711 13.1185 11.8072 12.9742C11.6135 12.8039 11.5385 12.5354 11.6157 12.2893C11.6929 12.0432 11.9079 11.8658 12.1641 11.8366C13.1706 11.722 14.0807 11.4786 14.7394 10.9143C15.3686 10.3753 15.8695 9.4537 15.8695 7.74768C15.8695 6.86321 15.5681 6.16048 15.0717 5.60638C14.9068 5.42229 14.8601 5.16078 14.9511 4.93099C14.9976 4.81372 15.1796 4.29356 15.0452 3.53613C15.0266 3.43156 14.9775 3.37205 14.9428 3.347C14.926 3.33488 14.9111 3.32934 14.8982 3.32702ZM3.59199 11.2677C3.94854 11.3187 4.1962 11.6491 4.14516 12.0057C4.08287 12.4408 4.21942 12.7233 4.51189 12.9919C4.84826 13.3007 5.35264 13.5511 5.98515 13.8471C6.0216 13.8641 6.05852 13.8814 6.09584 13.8988C6.65998 14.162 7.31473 14.4675 7.82724 14.8772C8.40387 15.3383 8.8633 15.9803 8.8633 16.8956C8.8633 17.2938 8.62253 17.6149 8.3594 17.7985C8.07385 17.9978 7.69531 18.0922 7.28838 18.0156C6.93442 17.9489 6.70151 17.6079 6.76816 17.254C6.83481 16.9 7.17579 16.6671 7.52976 16.7337C7.53675 16.7351 7.5432 16.736 7.54914 16.7366C7.50725 16.409 7.33083 16.1504 7.01269 15.896C6.62603 15.5868 6.10255 15.342 5.48712 15.0541C5.46894 15.0456 5.45068 15.0371 5.43234 15.0285C4.83809 14.7504 4.14015 14.4213 3.62976 13.9527C3.07546 13.4438 2.7208 12.7511 2.85398 11.8208C2.90502 11.4643 3.23544 11.2166 3.59199 11.2677Z" fill="#808085"/>
</svg>
