<svg width="20" height="20" viewBox="0 0 20 20" fill="none" xmlns="http://www.w3.org/2000/svg">
    <path fill-rule="evenodd" clip-rule="evenodd" d="M17 2.25C17.4142 2.25 17.75 2.58579 17.75 3V12.75C17.75 13.1642 17.4142 13.5 17 13.5H12.79C12.7427 13.5 12.6963 13.5135 12.6563 13.5388L10.4108 14.9609C10.1748 15.1157 9.82519 15.1157 9.58919 14.9609L7.34375 13.5388C7.30374 13.5135 7.25735 13.5 7.20999 13.5H3.00002C2.5858 13.5 2.25002 13.1642 2.25002 12.75V3C2.25002 2.58579 2.5858 2.25 3.00002 2.25H7.18507C8.26914 2.25 9.2927 2.71858 10 3.52233C10.7073 2.71858 11.7309 2.25 12.815 2.25H17ZM9.25002 12.9706V5.02744L9.03035 4.71259C8.60954 4.10943 7.92052 3.75 7.18507 3.75H3.75002V12H7.20999C7.54152 12 7.86624 12.0942 8.14633 12.2716L9.25002 12.9706ZM10.75 12.9706L11.8537 12.2716C12.1338 12.0942 12.4585 12 12.79 12H16.25V3.75H12.815C12.0795 3.75 11.3905 4.10943 10.9697 4.71259L10.75 5.02744V12.9706Z" fill="#808085"/>
    <path d="M3 15.5C2.58579 15.5 2.25 15.8358 2.25 16.25C2.25 16.6642 2.58579 17 3 17H6.77293L9.57877 18.7703C9.8307 18.9383 10.1589 18.9383 10.4108 18.7703L13.2271 17H17C17.4142 17 17.75 16.6642 17.75 16.25C17.75 15.8358 17.4142 15.5 17 15.5H13C12.8519 15.5 12.7072 15.5438 12.584 15.626L9.9948 17.2449L7.41604 15.626C7.29284 15.5438 7.14808 15.5 7.00002 15.5H3Z" fill="#808085"/>
</svg>
