<svg width="20" height="21" viewBox="0 0 20 21" fill="none" xmlns="http://www.w3.org/2000/svg">
    <path d="M10.75 4.24998C10.75 3.83577 10.4142 3.49998 10 3.49998C9.58579 3.49998 9.25 3.83577 9.25 4.24998V16.75C9.25 17.1642 9.58579 17.5 10 17.5C10.4142 17.5 10.75 17.1642 10.75 16.75V4.24998Z" fill="#FFA800"/>
    <path d="M15 8.50002C15.4142 8.50002 15.75 8.8358 15.75 9.25002V16.75C15.75 17.1642 15.4142 17.5 15 17.5C14.5858 17.5 14.25 17.1642 14.25 16.75V9.25002C14.25 8.8358 14.5858 8.50002 15 8.50002Z" fill="#FFA800"/>
    <path d="M5 11.5C5.41421 11.5 5.75 11.8358 5.75 12.25V16.75C5.75 17.1642 5.41421 17.5 5 17.5C4.58579 17.5 4.25 17.1642 4.25 16.75V12.25C4.25 11.8358 4.58579 11.5 5 11.5Z" fill="#FFA800"/>
</svg>
