<svg width="20" height="20" viewBox="0 0 20 20" fill="none" xmlns="http://www.w3.org/2000/svg">
    <path d="M10 14C10.4142 14 10.75 13.6642 10.75 13.25V10.5C10.75 10.0858 10.4142 9.75002 10 9.75002C9.58579 9.75002 9.25 10.0858 9.25 10.5V13.25C9.25 13.6642 9.58579 14 10 14Z" fill="#808085"/>
    <path d="M10 6C10.5523 6 11 6.44771 11 7C11 7.55229 10.5523 8 10 8C9.44771 8 9 7.55229 9 7C9 6.44771 9.44771 6 10 6Z" fill="#808085"/>
    <path fill-rule="evenodd" clip-rule="evenodd" d="M18 10C18 5.58172 14.4183 2 10 2C5.58172 2 2 5.58172 2 10C2 14.4183 5.58172 18 10 18C14.4183 18 18 14.4183 18 10ZM10 3.5C13.5899 3.5 16.5 6.41015 16.5 10C16.5 13.5899 13.5899 16.5 10 16.5C6.41015 16.5 3.5 13.5899 3.5 10C3.5 6.41015 6.41015 3.5 10 3.5Z" fill="#808085"/>
</svg>
