<svg width="24" height="24" viewBox="0 0 24 24" fill="none" xmlns="http://www.w3.org/2000/svg">
    <path fill-rule="evenodd" clip-rule="evenodd" d="M12 24C18.6274 24 24 18.6274 24 12C24 5.37258 18.6274 0 12 0C5.37258 0 0 5.37258 0 12C0 18.6274 5.37258 24 12 24ZM5.28108 5C5.08055 5 4.94466 5.20414 5.02204 5.38913L11.4075 20.6551C11.5999 21.115 12.2513 21.115 12.4437 20.6551L18.8292 5.38913C18.9066 5.20414 18.7707 5 18.5702 5H15.9531C15.8382 5 15.735 5.0699 15.6924 5.1765L11.9256 14.5934L8.15886 5.1765C8.11622 5.0699 8.01298 5 7.89817 5H5.28108Z" fill="#5B30D8"/>
</svg>
