<svg width="24" height="24" viewBox="0 0 24 24" fill="none" xmlns="http://www.w3.org/2000/svg">
    <path fill-rule="evenodd" clip-rule="evenodd" d="M12 24C18.6274 24 24 18.6274 24 12C24 5.37258 18.6274 0 12 0C5.37258 0 0 5.37258 0 12C0 18.6274 5.37258 24 12 24ZM15.6265 6.29776L17.2937 5.50675C17.3108 5.49874 17.3304 5.49782 17.3482 5.50419C17.366 5.51056 17.3805 5.5237 17.3887 5.54075L21.9929 15.2488C21.997 15.2573 21.9994 15.2664 21.9999 15.2758C22.0004 15.2851 21.9991 15.2945 21.996 15.3033C21.9928 15.3122 21.988 15.3203 21.9817 15.3273C21.9754 15.3342 21.9678 15.3399 21.9593 15.3439L20.2921 16.1349C20.2837 16.1389 20.2745 16.1412 20.2651 16.1417C20.2557 16.1421 20.2464 16.1408 20.2376 16.1376C20.2287 16.1344 20.2206 16.1296 20.2137 16.1233C20.2067 16.117 20.2011 16.1094 20.1971 16.1009L19.5352 14.7052C19.5281 14.6905 19.5163 14.6787 19.5016 14.6716C19.4868 14.6646 19.4702 14.6628 19.4543 14.6666C19.4384 14.6704 19.4243 14.6795 19.4144 14.6924C19.4044 14.7054 19.3992 14.7213 19.3995 14.7376C19.4348 16.1033 18.8318 17.1418 17.3776 17.8316C15.4962 18.7242 13.7148 17.8943 12.5678 15.4774L9.5952 9.20991C9.5944 9.20805 9.59233 9.20459 9.59233 9.20459C8.76774 7.76879 7.84936 7.39192 6.66801 7.95231C5.12864 8.68269 4.93817 10.2135 5.94214 12.3305L8.40687 17.526C8.41088 17.5345 8.41319 17.5437 8.41364 17.553C8.41413 17.5624 8.41275 17.5718 8.40957 17.5806C8.40642 17.5894 8.40155 17.5975 8.39527 17.6045C8.38895 17.6114 8.38135 17.6171 8.37285 17.6211L6.7057 18.4121C6.68857 18.4201 6.66898 18.421 6.65116 18.4146C6.63337 18.4083 6.61882 18.3951 6.61064 18.3781L2.00647 8.66959C1.99872 8.65272 1.9979 8.63349 2.00418 8.61602C2.01046 8.59856 2.02334 8.58426 2.04006 8.57619L3.7068 7.78763C3.71527 7.78354 3.72442 7.78116 3.73378 7.78064C3.74314 7.78012 3.7525 7.78146 3.76135 7.78458C3.77019 7.78771 3.77831 7.79255 3.78528 7.79884C3.79223 7.80513 3.79786 7.81274 3.80187 7.82122L4.45724 9.20211C4.46425 9.21682 4.4761 9.22867 4.49078 9.23568C4.50546 9.24273 4.52207 9.24452 4.53793 9.24079C4.55378 9.23706 4.56784 9.22801 4.57786 9.21516C4.58784 9.20231 4.59313 9.18642 4.59285 9.17015C4.5781 7.79296 5.32034 6.70782 6.6 6.10073C8.56701 5.16757 10.2252 5.84757 11.4426 8.41315L14.4447 14.7421C15.2255 16.0825 16.2262 16.4663 17.3854 15.9161C18.8179 15.2345 19.0702 13.7262 18.1281 11.7378L15.5925 6.3928C15.5885 6.38433 15.5862 6.37515 15.5857 6.36579C15.5852 6.35642 15.5866 6.34706 15.5898 6.33823C15.593 6.3294 15.5978 6.32128 15.6041 6.31434C15.6104 6.3074 15.618 6.30176 15.6265 6.29776Z" fill="#AE94F8"/>
</svg>
