<svg width="18" height="17" viewBox="0 0 18 17" fill="none" xmlns="http://www.w3.org/2000/svg">
    <path fill-rule="evenodd" clip-rule="evenodd" d="M10.1818 0.272396C9.98287 0.222651 9.7722 0.256566 9.59888 0.366245C9.42557 0.475924 9.30474 0.651796 9.26451 0.852916L8.48135 4.7687C7.00725 4.85736 5.64023 5.25758 4.50903 5.89268C4.11852 5.70982 3.68155 5.60791 3.22222 5.60791C1.60601 5.60791 0.25 6.87908 0.25 8.50267C0.25 9.4676 0.732983 10.3119 1.46087 10.8345C1.57657 12.3741 2.48432 13.7039 3.78172 14.6431C5.17308 15.6502 7.05784 16.25 9.10578 16.25C11.1537 16.25 13.0385 15.6502 14.4298 14.6431C15.7762 13.6685 16.7029 12.2732 16.7604 10.6593C17.3629 10.1334 17.75 9.36562 17.75 8.50267C17.75 6.87908 16.394 5.60791 14.7778 5.60791C14.3641 5.60791 13.9684 5.69059 13.6085 5.8407C12.568 5.27498 11.3353 4.90512 10.007 4.7891L10.5811 1.91838L13.1036 2.549C13.3227 3.10586 13.8653 3.5 14.4999 3.5C15.3284 3.5 15.9999 2.82843 15.9999 2C15.9999 1.17157 15.3284 0.5 14.4999 0.5C14.0275 0.5 13.6061 0.718393 13.3312 1.05973L10.1818 0.272396ZM13.9999 2L14.0589 1.76431C14.1431 1.607 14.309 1.5 14.4999 1.5C14.7761 1.5 14.9999 1.72386 14.9999 2C14.9999 2.27614 14.7761 2.5 14.4999 2.5C14.2238 2.5 13.9999 2.27614 13.9999 2ZM9.10578 6.25C7.47653 6.25 6.01352 6.69191 4.92521 7.39189L4.50332 7.66325L4.09143 7.37695C3.8495 7.20878 3.55031 7.10791 3.22222 7.10791C2.38383 7.10791 1.75 7.75722 1.75 8.50267C1.75 9.02638 2.05723 9.49707 2.53557 9.7368L2.96123 9.95015L2.94928 10.4261C2.94866 10.4507 2.94835 10.4753 2.94835 10.5C2.94835 11.5801 3.55172 12.6248 4.66126 13.428C5.7699 14.2305 7.33885 14.75 9.10578 14.75C10.8727 14.75 12.4417 14.2305 13.5503 13.428C14.6598 12.6248 15.2632 11.5801 15.2632 10.5C15.2632 10.4438 15.2616 10.3879 15.2584 10.3324L15.2334 9.89515L15.6019 9.6585C16.0014 9.40198 16.25 8.9748 16.25 8.50267C16.25 7.75722 15.6162 7.10791 14.7778 7.10791C14.48 7.10791 14.2062 7.19099 13.9775 7.33184L13.5838 7.5742L13.1904 7.33146C12.1125 6.66634 10.6871 6.25 9.10578 6.25Z" fill="#808085"/>
</svg>
