<svg width="20" height="20" viewBox="0 0 20 20" fill="#808085" xmlns="http://www.w3.org/2000/svg">
    <path fill-rule="evenodd" clip-rule="evenodd" d="M10 1.75C10.2886 1.75 10.5516 1.91562 10.6764 2.1759L12.9075 6.83192L18.0938 7.48537C18.3828 7.52179 18.6246 7.72232 18.7139 7.99964C18.8032 8.27697 18.7238 8.58091 18.5103 8.77913L14.7109 12.3065L15.6808 17.3586C15.7354 17.6431 15.6213 17.9336 15.3877 18.1048C15.1541 18.2761 14.8428 18.2976 14.5879 18.1599L9.99999 15.6823L5.4121 18.1599C5.15723 18.2976 4.84587 18.2761 4.61226 18.1048C4.37865 17.9336 4.26456 17.6431 4.31917 17.3586L5.28907 12.3065L1.48971 8.77913C1.27619 8.58091 1.1968 8.27697 1.28608 7.99964C1.37537 7.72232 1.61718 7.52179 1.90624 7.48537L7.09254 6.83192L9.32364 2.1759C9.44836 1.91562 9.71137 1.75 10 1.75ZM10 4.23557L8.26849 7.849C8.15831 8.07894 7.93886 8.23714 7.68589 8.26902L3.68752 8.7728L6.61428 11.49C6.80379 11.6659 6.8893 11.9271 6.84054 12.181L6.09032 16.0889L9.64361 14.17C9.86602 14.0499 10.134 14.0499 10.3564 14.17L13.9097 16.0889L13.1594 12.181C13.1107 11.9271 13.1962 11.6659 13.3857 11.49L16.3125 8.7728L12.3141 8.26902C12.0611 8.23714 11.8417 8.07894 11.7315 7.849L10 4.23557Z" />
</svg>
