<svg width="20" height="20" viewBox="0 0 20 20" fill="none" xmlns="http://www.w3.org/2000/svg">
    <path fill-rule="evenodd" clip-rule="evenodd" d="M18.5654 3.5073C18.7546 3.72443 18.8028 4.03074 18.6893 4.29547L17.2491 7.65602C17.1998 12.0208 15.0811 15.1279 12.0376 16.6367C8.98527 18.1499 5.09898 18.0091 1.63572 16.0851C1.33211 15.9164 1.18403 15.5614 1.27782 15.227C1.3716 14.8926 1.68272 14.6663 2.02976 14.6801C3.23869 14.7282 4.43558 14.4911 5.5263 13.9959C4.44912 13.3243 3.67083 12.5293 3.1277 11.6717C2.39522 10.5151 2.11888 9.2902 2.06891 8.19083C2.01909 7.09474 2.19319 6.10811 2.37612 5.4008C2.46803 5.04541 2.56341 4.7558 2.63697 4.55234C2.67379 4.45049 2.70527 4.36988 2.7283 4.31303C2.73982 4.28459 2.74924 4.26206 2.75617 4.24576L2.76466 4.22601L2.76742 4.2197L2.76841 4.21745L2.76881 4.21655C2.76898 4.21617 2.76914 4.21581 3.4545 4.52041L2.76914 4.21581C2.87888 3.9689 3.11293 3.80011 3.38186 3.77394C3.65078 3.74777 3.91299 3.86826 4.06827 4.08938C5.31401 5.86324 6.87297 7.03889 8.78734 7.22599C8.93008 5.79532 9.5266 4.2013 11.3286 3.51352C12.454 3.08395 13.9941 3.23269 15.108 4.01551L17.8016 3.27674C18.0793 3.20056 18.3762 3.29016 18.5654 3.5073ZM3.75212 6.09578C3.62789 6.66336 3.53305 7.3678 3.56736 8.12272C3.6083 9.02334 3.83196 9.98022 4.39493 10.8691C4.95489 11.7533 5.87903 12.6156 7.39547 13.2896C7.64432 13.4002 7.81367 13.637 7.83789 13.9082C7.86211 14.1795 7.7374 14.4426 7.51209 14.5955C6.71335 15.1377 5.83978 15.5474 4.92489 15.8152C7.22017 16.4278 9.5081 16.2165 11.3714 15.2928C13.9054 14.0366 15.75 11.4169 15.75 7.50003C15.75 7.39846 15.7706 7.29794 15.8106 7.20459L16.6976 5.13493L15.1389 5.56245C14.8922 5.63011 14.628 5.56737 14.4381 5.396C13.7613 4.78536 12.6145 4.62825 11.8635 4.91491C10.6434 5.38059 10.25 6.58079 10.25 8.00003C10.25 8.40667 9.9259 8.73923 9.5194 8.74977C7.13481 8.81161 5.22522 7.71861 3.75212 6.09578Z" fill="#808085"/>
</svg>
