<svg width="20" height="21" viewBox="0 0 20 21" fill="none" xmlns="http://www.w3.org/2000/svg">
    <path d="M2.49129 7.8011C2.79566 8.08206 3.27015 8.06308 3.55111 7.75871L5.25 5.91824L5.25 15.75C5.25 16.1642 5.58579 16.5 6 16.5C6.41421 16.5 6.75 16.1642 6.75 15.75L6.75 5.91823L8.4489 7.75871C8.72985 8.06308 9.20435 8.08206 9.50871 7.8011C9.81308 7.52015 9.83206 7.04566 9.55111 6.74129L6.55111 3.49129C6.40913 3.33748 6.20933 3.25 6 3.25C5.79068 3.25 5.59088 3.33748 5.4489 3.49129L2.4489 6.74129C2.16795 7.04566 2.18693 7.52015 2.49129 7.8011Z" fill="#808085"/>
    <path d="M10.4913 13.1989C10.7957 12.9179 11.2702 12.9369 11.5511 13.2413L13.25 15.0818V5.25C13.25 4.83578 13.5858 4.5 14 4.5C14.4142 4.5 14.75 4.83578 14.75 5.25V15.0818L16.4489 13.2413C16.7299 12.9369 17.2043 12.9179 17.5087 13.1989C17.8131 13.4798 17.8321 13.9543 17.5511 14.2587L14.5511 17.5087C14.4091 17.6625 14.2093 17.75 14 17.75C13.7907 17.75 13.5909 17.6625 13.4489 17.5087L10.4489 14.2587C10.1679 13.9543 10.1869 13.4798 10.4913 13.1989Z" fill="#808085"/>
</svg>
