<svg width="20" height="20" viewBox="0 0 20 20" fill="none" xmlns="http://www.w3.org/2000/svg">
    <path fill-rule="evenodd" clip-rule="evenodd" d="M10 1.63397L13.6368 3.73365V7.93301L10 10.0327L6.36328 7.93301V3.73365L10 1.63397ZM10 3.36602L7.86328 4.59968V7.06699L10 8.30064L12.1368 7.06699V4.59968L10 3.36602Z" fill="#808085"/>
    <path fill-rule="evenodd" clip-rule="evenodd" d="M15 9.96732L18.6368 12.067V16.2664L15 18.366L11.3633 16.2664V12.067L15 9.96732ZM12.8633 12.933V15.4003L15 16.634L17.1368 15.4003V12.933L15 11.6994L12.8633 12.933Z" fill="#808085"/>
    <path fill-rule="evenodd" clip-rule="evenodd" d="M8.63678 12.067L5.00003 9.96732L1.36328 12.067V16.2664L5.00003 18.366L8.63678 16.2664V12.067ZM2.86328 15.4003V12.933L5.00003 11.6994L7.13678 12.933V15.4003L5.00003 16.634L2.86328 15.4003Z" fill="#808085"/>
</svg>
