<svg width="24" height="24" viewBox="0 0 24 24" fill="none" xmlns="http://www.w3.org/2000/svg">
    <path fill-rule="evenodd" clip-rule="evenodd" d="M11.9993 1.8457L16.4634 4.42305V9.57775L11.9993 12.1551L7.53516 9.57775V4.42305L11.9993 1.8457ZM9.53516 5.57775V8.42305L11.9993 9.8457L14.4634 8.42305V5.57775L11.9993 4.1551L9.53516 5.57775Z" fill="#808085"/>
    <path fill-rule="evenodd" clip-rule="evenodd" d="M17.9993 11.8457L22.4634 14.423V19.5777L17.9993 22.1551L13.5352 19.5777V14.423L17.9993 11.8457ZM15.5352 15.5777V18.423L17.9993 19.8457L20.4634 18.423V15.5777L17.9993 14.1551L15.5352 15.5777Z" fill="#808085"/>
    <path fill-rule="evenodd" clip-rule="evenodd" d="M10.4634 14.423L5.99926 11.8457L1.53516 14.423V19.5777L5.99926 22.1551L10.4634 19.5777V14.423ZM3.53516 18.423V15.5777L5.99926 14.1551L8.46336 15.5777V18.423L5.99926 19.8457L3.53516 18.423Z" fill="#808085"/>
</svg>
