<svg width="20" height="21" viewBox="0 0 20 21" fill="none" xmlns="http://www.w3.org/2000/svg">
    <path fill-rule="evenodd" clip-rule="evenodd" d="M5 4.5C5 5.32843 4.32843 6 3.5 6C2.67157 6 2 5.32843 2 4.5C2 3.67157 2.67157 3 3.5 3C4.32843 3 5 3.67157 5 4.5ZM5 10.5C5 11.3284 4.32843 12 3.5 12C2.67157 12 2 11.3284 2 10.5C2 9.67157 2.67157 9 3.5 9C4.32843 9 5 9.67157 5 10.5ZM10 6C10.8284 6 11.5 5.32843 11.5 4.5C11.5 3.67157 10.8284 3 10 3C9.17157 3 8.5 3.67157 8.5 4.5C8.5 5.32843 9.17157 6 10 6ZM11.5 10.5C11.5 11.3284 10.8284 12 10 12C9.17157 12 8.5 11.3284 8.5 10.5C8.5 9.67157 9.17157 9 10 9C10.8284 9 11.5 9.67157 11.5 10.5ZM10 18C10.8284 18 11.5 17.3284 11.5 16.5C11.5 15.6716 10.8284 15 10 15C9.17157 15 8.5 15.6716 8.5 16.5C8.5 17.3284 9.17157 18 10 18ZM18 4.5C18 5.32843 17.3284 6 16.5 6C15.6716 6 15 5.32843 15 4.5C15 3.67157 15.6716 3 16.5 3C17.3284 3 18 3.67157 18 4.5ZM16.5 12C17.3284 12 18 11.3284 18 10.5C18 9.67157 17.3284 9 16.5 9C15.6716 9 15 9.67157 15 10.5C15 11.3284 15.6716 12 16.5 12Z" fill="#808085"/>
</svg>
