<svg width="20" height="21" viewBox="0 0 20 21" fill="none" xmlns="http://www.w3.org/2000/svg">
    <g clip-path="url(#clip0)">
        <path d="M18 11.5C18 11.0858 17.6642 10.75 17.25 10.75C16.8358 10.75 16.5 11.0858 16.5 11.5V13C16.5 14.2427 15.4926 15.25 14.25 15.25H4.74609L7.24388 13.0644C7.55561 12.7917 7.58719 12.3179 7.31443 12.0061C7.04167 11.6944 6.56785 11.6628 6.25612 11.9356L2.25612 15.4356C2.09336 15.578 2 15.7837 2 16C2 16.2163 2.09336 16.422 2.25612 16.5644L6.25612 20.0644C6.56785 20.3372 7.04167 20.3056 7.31443 19.9939C7.58719 19.6822 7.55561 19.2083 7.24388 18.9356L4.74608 16.75H14.25C16.3211 16.75 18 15.0711 18 13V11.5Z" fill="#808085"/>
        <path d="M13.7439 0.935578C13.4322 0.662816 12.9583 0.694404 12.6856 1.00613C12.4128 1.31786 12.4444 1.79168 12.7561 2.06444L15.2539 4.25001H5.75C3.67893 4.25001 2 5.92895 2 8.00001V9.50001C2 9.91423 2.33579 10.25 2.75 10.25C3.16421 10.25 3.5 9.91423 3.5 9.50001V8.00001C3.5 6.75737 4.50736 5.75001 5.75 5.75001H15.2539L12.7561 7.93558C12.4444 8.20834 12.4128 8.68216 12.6856 8.99389C12.9583 9.30562 13.4322 9.3372 13.7439 9.06444L17.7439 5.56444C17.9066 5.42203 18 5.21628 18 5.00001C18 4.78374 17.9066 4.57799 17.7439 4.43558L13.7439 0.935578Z" fill="#808085"/>
    </g>
    <defs>
        <clipPath id="clip0">
            <rect width="20" height="20" fill="white" transform="translate(0 0.5)"/>
        </clipPath>
    </defs>
</svg>
