<svg width="20" height="21" viewBox="0 0 20 21" fill="none" xmlns="http://www.w3.org/2000/svg">
    <path d="M10 18.5L9.59371 19.1304C9.84112 19.2899 10.1589 19.2899 10.4063 19.1304L10 18.5ZM10 5.37455L9.38917 5.8097C9.5299 6.00725 9.75747 6.12455 10 6.12455C10.2426 6.12455 10.4702 6.00725 10.6109 5.8097L10 5.37455ZM10 18.5C10.4063 17.8696 10.4064 17.8697 10.4065 17.8697C10.4065 17.8697 10.4066 17.8697 10.4065 17.8697C10.4065 17.8697 10.4063 17.8696 10.406 17.8694C10.4054 17.869 10.4043 17.8683 10.4028 17.8673C10.3997 17.8653 10.3948 17.8621 10.388 17.8576C10.3744 17.8487 10.3536 17.835 10.3259 17.8166C10.2706 17.7798 10.1882 17.7242 10.0825 17.6512C9.87094 17.5052 9.56672 17.2895 9.20077 17.0143C8.46758 16.463 7.49292 15.6775 6.52131 14.7381C5.54712 13.7963 4.59338 12.7164 3.88726 11.5786C3.17836 10.4364 2.75 9.28574 2.75 8.1875H1.25C1.25 9.66738 1.82165 11.0949 2.61275 12.3696C3.40663 13.6488 4.4529 14.8248 5.47871 15.8166C6.50711 16.8108 7.53246 17.6366 8.29927 18.2132C8.68332 18.502 9.0041 18.7295 9.23009 18.8855C9.34312 18.9636 9.43255 19.0238 9.49444 19.0651C9.52538 19.0857 9.54946 19.1015 9.56616 19.1125C9.57452 19.1179 9.58103 19.1222 9.58564 19.1252C9.58794 19.1267 9.58978 19.1279 9.59112 19.1287C9.5918 19.1292 9.59235 19.1295 9.59278 19.1298C9.593 19.1299 9.59323 19.1301 9.59334 19.1302C9.59354 19.1303 9.59371 19.1304 10 18.5ZM2.75 8.1875C2.75 5.97475 4.44119 4.25 6.44446 4.25V2.75C3.53851 2.75 1.25 5.22258 1.25 8.1875H2.75ZM6.44446 4.25C7.63564 4.25 8.70692 4.85197 9.38917 5.8097L10.6109 4.9394C9.67138 3.62055 8.16102 2.75 6.44446 2.75V4.25ZM13.5556 2.75C11.839 2.75 10.3287 3.62055 9.38917 4.9394L10.6109 5.8097C11.2931 4.85197 12.3644 4.25 13.5556 4.25V2.75ZM18.75 8.1875C18.75 5.22258 16.4615 2.75 13.5556 2.75V4.25C15.5589 4.25 17.25 5.97475 17.25 8.1875H18.75ZM10 18.5C10.4063 19.1304 10.4065 19.1303 10.4067 19.1302C10.4068 19.1301 10.407 19.1299 10.4073 19.1298C10.4077 19.1295 10.4082 19.1292 10.4089 19.1287C10.4103 19.1279 10.4121 19.1267 10.4144 19.1252C10.419 19.1222 10.4255 19.1179 10.4339 19.1125C10.4506 19.1015 10.4747 19.0857 10.5056 19.0651C10.5675 19.0238 10.6569 18.9636 10.77 18.8855C10.9959 18.7295 11.3167 18.502 11.7008 18.2132C12.4676 17.6366 13.4929 16.8108 14.5213 15.8166C15.5471 14.8248 16.5934 13.6488 17.3873 12.3696C18.1784 11.0949 18.75 9.66738 18.75 8.1875H17.25C17.25 9.28574 16.8217 10.4364 16.1128 11.5786C15.4067 12.7164 14.4529 13.7963 13.4787 14.7381C12.5071 15.6775 11.5325 16.463 10.7993 17.0143C10.4333 17.2895 10.1291 17.5052 9.91759 17.6512C9.81187 17.7242 9.72942 17.7798 9.67412 17.8166C9.64648 17.835 9.62563 17.8487 9.61206 17.8576C9.60528 17.8621 9.60032 17.8653 9.59724 17.8673C9.5957 17.8683 9.59463 17.869 9.59404 17.8694C9.59374 17.8696 9.59357 17.8697 9.59351 17.8697C9.59348 17.8697 9.59353 17.8697 9.59352 17.8697C9.5936 17.8697 9.59371 17.8696 10 18.5Z" fill="#808085"/>
</svg>
