<svg width="20" height="21" viewBox="0 0 20 21" fill="none" xmlns="http://www.w3.org/2000/svg">
    <path d="M10.75 3.25C10.75 2.83579 10.4142 2.5 10 2.5C9.58579 2.5 9.25 2.83579 9.25 3.25V4.75H8C6.20507 4.75 4.75 6.20507 4.75 8C4.75 9.79493 6.20507 11.25 8 11.25H12C12.9665 11.25 13.75 12.0335 13.75 13C13.75 13.9665 12.9665 14.75 12 14.75H7.5C6.80964 14.75 6.25 14.1904 6.25 13.5C6.25 13.0858 5.91421 12.75 5.5 12.75C5.08579 12.75 4.75 13.0858 4.75 13.5C4.75 15.0188 5.98122 16.25 7.5 16.25H9.25V17.75C9.25 18.1642 9.58579 18.5 10 18.5C10.4142 18.5 10.75 18.1642 10.75 17.75V16.25H12C13.7949 16.25 15.25 14.7949 15.25 13C15.25 11.2051 13.7949 9.75 12 9.75H8C7.0335 9.75 6.25 8.9665 6.25 8C6.25 7.0335 7.0335 6.25 8 6.25H12.5C13.1904 6.25 13.75 6.80964 13.75 7.5C13.75 7.91421 14.0858 8.25 14.5 8.25C14.9142 8.25 15.25 7.91421 15.25 7.5C15.25 5.98122 14.0188 4.75 12.5 4.75H10.75V3.25Z" fill="#808085"/>
</svg>
