<svg width="20" height="21" viewBox="0 0 20 21" fill="none" xmlns="http://www.w3.org/2000/svg">
    <path d="M10.75 3.25C10.75 2.83579 10.4142 2.5 10 2.5C9.58579 2.5 9.25 2.83579 9.25 3.25V12.019L6.51287 9.45285C6.21069 9.16955 5.73607 9.18486 5.45277 9.48704C5.16947 9.78922 5.18477 10.2638 5.48695 10.5471L9.48687 14.2971C9.77536 14.5676 10.2243 14.5676 10.5128 14.2972L14.5129 10.5472C14.8151 10.2639 14.8304 9.78924 14.5471 9.48705C14.2638 9.18486 13.7892 9.16955 13.487 9.45284L10.75 12.0187V3.25Z" fill="#808085"/>
    <path d="M3.5 13.25C3.5 12.8358 3.16421 12.5 2.75 12.5C2.33579 12.5 2 12.8358 2 13.25V15.75C2 17.2688 3.23122 18.5 4.75 18.5H15.25C16.7688 18.5 18 17.2688 18 15.75V13.25C18 12.8358 17.6642 12.5 17.25 12.5C16.8358 12.5 16.5 12.8358 16.5 13.25V15.75C16.5 16.4404 15.9404 17 15.25 17H4.75C4.05964 17 3.5 16.4404 3.5 15.75V13.25Z" fill="#808085"/>
</svg>
