<svg width="20" height="21" viewBox="0 0 20 21" fill="none" xmlns="http://www.w3.org/2000/svg">
    <path fill-rule="evenodd" clip-rule="evenodd" d="M15.6569 16.1569C18.781 13.0327 18.781 7.96734 15.6569 4.84315C12.5327 1.71895 7.46734 1.71895 4.34315 4.84315C1.21895 7.96734 1.21895 13.0327 4.34315 16.1569C7.46734 19.281 12.5327 19.281 15.6569 16.1569ZM16.4966 10.2896C16.5524 12.0225 15.9189 13.7735 14.5962 15.0962C13.2735 16.4189 11.5226 17.0524 9.7897 16.9966C10.1024 15.3935 10.8796 13.8631 12.1214 12.6213C13.3632 11.3795 14.8936 10.6023 16.4966 10.2896ZM16.2761 8.80442C14.3654 9.16345 12.5392 10.0822 11.0608 11.5606C9.58228 13.0391 8.66354 14.8654 8.30453 16.7761C7.24196 16.4901 6.23777 15.9302 5.40381 15.0962C4.56987 14.2623 4.00991 13.2581 3.72391 12.1956C5.63464 11.8366 7.46093 10.9178 8.93943 9.43933C10.4179 7.96086 11.3366 6.13462 11.6957 4.22393C12.7582 4.50994 13.7623 5.06989 14.5962 5.90381C15.4301 6.73774 15.9901 7.74189 16.2761 8.80442ZM10.2105 4.00339C9.89779 5.60648 9.12055 7.13689 7.87877 8.37867C6.63696 9.62048 5.10651 10.3977 3.50339 10.7104C3.44761 8.9775 4.08108 7.22653 5.40381 5.90381C6.72655 4.58106 8.47755 3.94759 10.2105 4.00339Z" fill="#808085"/>
</svg>
