<svg width="20" height="21" viewBox="0 0 20 21" fill="none" xmlns="http://www.w3.org/2000/svg">
    <path fill-rule="evenodd" clip-rule="evenodd" d="M4.35041 4.99997H1.66675C1.25253 4.99997 0.916748 4.66418 0.916748 4.24997C0.916748 3.83576 1.25253 3.49997 1.66675 3.49997H4.3504C4.67918 2.29913 5.77824 1.41663 7.08341 1.41663C8.38858 1.41663 9.48764 2.29913 9.81642 3.49997H18.3334C18.7476 3.49997 19.0834 3.83576 19.0834 4.24997C19.0834 4.66418 18.7476 4.99997 18.3334 4.99997H9.81641C9.48763 6.2008 8.38858 7.08329 7.08341 7.08329C5.77824 7.08329 4.67919 6.2008 4.35041 4.99997ZM5.75008 4.24996C5.75008 3.51358 6.34703 2.91663 7.08341 2.91663C7.81979 2.91663 8.41674 3.51358 8.41674 4.24996C8.41674 4.98634 7.81979 5.58329 7.08341 5.58329C6.34703 5.58329 5.75008 4.98634 5.75008 4.24996Z" fill="#808085"/>
    <path fill-rule="evenodd" clip-rule="evenodd" d="M0.916748 10.5C0.916748 10.0858 1.25253 9.74997 1.66675 9.74997H10.1837C10.5125 8.54913 11.6116 7.66663 12.9167 7.66663C14.2219 7.66663 15.321 8.54913 15.6497 9.74997H18.3334C18.7476 9.74997 19.0834 10.0858 19.0834 10.5C19.0834 10.9142 18.7476 11.25 18.3334 11.25H15.6497C15.321 12.4508 14.2219 13.3333 12.9167 13.3333C11.6116 13.3333 10.5125 12.4508 10.1837 11.25H1.66675C1.25253 11.25 0.916748 10.9142 0.916748 10.5ZM11.5834 10.5032C11.5851 11.2381 12.1814 11.8333 12.9167 11.8333C13.6531 11.8333 14.2501 11.2363 14.2501 10.5C14.2501 9.76358 13.6531 9.16663 12.9167 9.16663C12.1814 9.16663 11.5851 9.76185 11.5834 10.4968L11.5834 10.5L11.5834 10.5032Z" fill="#808085"/>
    <path fill-rule="evenodd" clip-rule="evenodd" d="M0.916748 16.75C0.916748 16.3358 1.25253 16 1.66675 16H4.3504C4.67918 14.7991 5.77824 13.9166 7.08341 13.9166C8.38858 13.9166 9.48764 14.7991 9.81642 16H18.3334C18.7476 16 19.0834 16.3358 19.0834 16.75C19.0834 17.1642 18.7476 17.5 18.3334 17.5H9.81641C9.48763 18.7008 8.38858 19.5833 7.08341 19.5833C5.77824 19.5833 4.67919 18.7008 4.35041 17.5H1.66675C1.25253 17.5 0.916748 17.1642 0.916748 16.75ZM7.08341 15.4166C6.34703 15.4166 5.75008 16.0136 5.75008 16.75C5.75008 17.4863 6.34703 18.0833 7.08341 18.0833C7.81979 18.0833 8.41674 17.4863 8.41674 16.75C8.41674 16.0136 7.81979 15.4166 7.08341 15.4166Z" fill="#808085"/>
</svg>
