<svg width="20" height="21" viewBox="0 0 20 21" fill="none" xmlns="http://www.w3.org/2000/svg">
    <path fill-rule="evenodd" clip-rule="evenodd" d="M18 10.5C18 14.9183 14.4183 18.5 10 18.5C5.58172 18.5 2 14.9183 2 10.5C2 6.08172 5.58172 2.5 10 2.5C14.4183 2.5 18 6.08172 18 10.5ZM16.4572 11.25C16.0854 14.4866 13.3362 17 10 17C6.6638 17 3.91465 14.4866 3.5428 11.25H6.0809L7.86126 14.1431C8.00613 14.3785 8.26876 14.5151 8.54469 14.4987C8.82063 14.4822 9.06513 14.3153 9.18097 14.0643L11.5946 8.83476L12.8613 10.8931C12.9978 11.1149 13.2396 11.25 13.5 11.25H16.4572ZM16.4572 9.74999C16.0853 6.51342 13.3362 4 10 4C6.66381 4 3.91466 6.51342 3.5428 9.74999H6.5C6.76045 9.74999 7.00224 9.88511 7.13874 10.1069L8.4054 12.1652L10.819 6.93571C10.9349 6.68473 11.1794 6.51781 11.4553 6.50134C11.7312 6.48487 11.9939 6.62151 12.1387 6.85693L13.9191 9.74999H16.4572Z" fill="#808085"/>
</svg>
