<svg width="24" height="24" viewBox="0 0 24 24" fill="none" xmlns="http://www.w3.org/2000/svg">
    <g clip-path="url(#clip0)">
        <path fill-rule="evenodd" clip-rule="evenodd" d="M16.2929 0.292893C16.6834 -0.0976311 17.3166 -0.0976311 17.7071 0.292893L21.7071 4.29289C22.0976 4.68342 22.0976 5.31658 21.7071 5.70711L17.7071 9.70711C17.3166 10.0976 16.6834 10.0976 16.2929 9.70711C15.9024 9.31658 15.9024 8.68342 16.2929 8.29289L18.5858 6H12.9291C12.8281 5.29385 12.6217 4.62171 12.3264 4H18.5858L16.2929 1.70711C15.9024 1.31658 15.9024 0.683417 16.2929 0.292893ZM7.70711 14.2929C8.09763 14.6834 8.09763 15.3166 7.70711 15.7071L5.41421 18H17C18.6569 18 20 16.6569 20 15V13C20 12.4477 20.4477 12 21 12C21.5523 12 22 12.4477 22 13V15C22 17.7614 19.7614 20 17 20H5.41421L7.70711 22.2929C8.09763 22.6834 8.09763 23.3166 7.70711 23.7071C7.31658 24.0976 6.68342 24.0976 6.29289 23.7071L2.29289 19.7071C1.90237 19.3166 1.90237 18.6834 2.29289 18.2929L6.29289 14.2929C6.68342 13.9024 7.31658 13.9024 7.70711 14.2929Z" fill="#808085"/>
        <path fill-rule="evenodd" clip-rule="evenodd" d="M6 12C8.76142 12 11 9.76142 11 7C11 4.23858 8.76142 2 6 2C3.23858 2 1 4.23858 1 7C1 9.76142 3.23858 12 6 12ZM9.20711 4.79289C8.81658 4.40237 8.18342 4.40237 7.79289 4.79289L5.5 7.08579L4.20711 5.79289C3.81658 5.40237 3.18342 5.40237 2.79289 5.79289C2.40237 6.18342 2.40237 6.81658 2.79289 7.20711L4.79289 9.20711C4.98043 9.39464 5.23478 9.5 5.5 9.5C5.76522 9.5 6.01957 9.39464 6.20711 9.20711L9.20711 6.20711C9.59763 5.81658 9.59763 5.18342 9.20711 4.79289Z" fill="#808085"/>
    </g>
    <defs>
        <clipPath id="clip0">
            <rect width="24" height="24" fill="white"/>
        </clipPath>
    </defs>
</svg>
