<svg width="20" height="21" viewBox="0 0 20 21" fill="none" xmlns="http://www.w3.org/2000/svg">
    <g clip-path="url(#clip0)">
        <path fill-rule="evenodd" clip-rule="evenodd" d="M5 9.5C7.20914 9.5 9 7.70914 9 5.5C9 3.29086 7.20914 1.5 5 1.5C2.79086 1.5 1 3.29086 1 5.5C1 7.70914 2.79086 9.5 5 9.5ZM7.63033 5.03033C7.92322 4.73744 7.92322 4.26256 7.63033 3.96967C7.33744 3.67678 6.86256 3.67678 6.56967 3.96967L4.6 5.93934L3.53033 4.86967C3.23744 4.57678 2.76256 4.57678 2.46967 4.86967C2.17678 5.16256 2.17678 5.63744 2.46967 5.93033L4.06967 7.53033C4.21032 7.67098 4.40109 7.75 4.6 7.75C4.79891 7.75 4.98968 7.67098 5.13033 7.53033L7.63033 5.03033Z" fill="#808085"/>
        <path fill-rule="evenodd" clip-rule="evenodd" d="M10.4944 5.75001C10.4981 5.66714 10.5 5.58379 10.5 5.5C10.5 5.07003 10.4507 4.65158 10.3573 4.25001H15.2539L12.7561 2.06444C12.4444 1.79168 12.4128 1.31786 12.6856 1.00613C12.9583 0.694404 13.4322 0.662816 13.7439 0.935578L17.7439 4.43558C17.9066 4.57799 18 4.78374 18 5.00001C18 5.21628 17.9066 5.42203 17.7439 5.56444L13.7439 9.06444C13.4322 9.3372 12.9583 9.30562 12.6856 8.99389C12.4128 8.68216 12.4444 8.20834 12.7561 7.93558L15.2539 5.75001H10.4944ZM17.25 10.75C17.6642 10.75 18 11.0858 18 11.5V13C18 15.0711 16.3211 16.75 14.25 16.75H4.74608L7.24388 18.9356C7.55561 19.2083 7.58719 19.6822 7.31443 19.9939C7.04167 20.3056 6.56785 20.3372 6.25612 20.0644L2.25612 16.5644C2.09336 16.422 2 16.2163 2 16C2 15.7837 2.09336 15.578 2.25612 15.4356L6.25612 11.9356C6.56785 11.6628 7.04167 11.6944 7.31443 12.0061C7.58719 12.3179 7.55561 12.7917 7.24388 13.0644L4.74609 15.25H14.25C15.4926 15.25 16.5 14.2427 16.5 13V11.5C16.5 11.0858 16.8358 10.75 17.25 10.75Z" fill="#808085"/>
    </g>
    <defs>
        <clipPath id="clip0">
            <rect width="20" height="20" fill="white" transform="translate(0 0.5)"/>
        </clipPath>
    </defs>
</svg>
