<svg width="20" height="21" viewBox="0 0 20 21" fill="none" xmlns="http://www.w3.org/2000/svg">
    <path fill-rule="evenodd" clip-rule="evenodd" d="M8.28042 13.2804C7.98753 13.5733 7.51265 13.5733 7.21976 13.2804C6.92687 12.9875 6.92687 12.5126 7.21976 12.2197L11.7197 7.71967C12.0126 7.42678 12.4874 7.42678 12.7803 7.71967C13.0732 8.01257 13.0732 8.48744 12.7803 8.78034L8.28042 13.2804Z" fill="#808085"/>
    <path fill-rule="evenodd" clip-rule="evenodd" d="M9.87472 3.89408C11.7335 2.03531 14.7472 2.0353 16.6059 3.89408C18.4647 5.75286 18.4647 8.76653 16.6059 10.6253L14.9858 12.2455C14.6929 12.5384 14.218 12.5384 13.9251 12.2455C13.6322 11.9526 13.6322 11.4777 13.9251 11.1848L15.5453 9.56465C16.8182 8.29166 16.8182 6.22773 15.5453 4.95474C14.2723 3.68175 12.2084 3.68175 10.9354 4.95474L9.31522 6.5749C9.02232 6.86779 8.54745 6.86779 8.25456 6.57489C7.96166 6.282 7.96167 5.80713 8.25456 5.51423L9.87472 3.89408ZM6.0749 8.75454C6.36779 9.04744 6.36779 9.52231 6.0749 9.8152L4.45474 11.4354C3.18175 12.7083 3.18175 14.7723 4.45474 16.0453C5.72772 17.3182 7.79164 17.3182 9.06462 16.0453L10.6848 14.4251C10.9777 14.1322 11.4526 14.1322 11.7454 14.4251C12.0383 14.718 12.0383 15.1929 11.7454 15.4858L10.1253 17.1059C8.26651 18.9647 5.25285 18.9647 3.39408 17.1059C1.53531 15.2471 1.53531 12.2335 3.39408 10.3747L5.01424 8.75454C5.30713 8.46165 5.78201 8.46165 6.0749 8.75454Z" fill="#808085"/>
</svg>
