<svg width="20" height="21" viewBox="0 0 20 21" fill="none" xmlns="http://www.w3.org/2000/svg">
    <path fill-rule="evenodd" clip-rule="evenodd" d="M4.77643 11.8027C4.86542 11.4764 5.16179 11.25 5.50001 11.25H14.5C14.8382 11.25 15.1346 11.4764 15.2236 11.8027L16.7236 17.3027C16.7851 17.5282 16.7379 17.7695 16.596 17.9552C16.4541 18.141 16.2338 18.25 16 18.25H4.00001C3.76625 18.25 3.54586 18.141 3.40398 17.9552C3.26209 17.7695 3.21493 17.5282 3.27643 17.3027L4.77643 11.8027ZM6.07285 12.75L4.98194 16.75H15.0181L13.9272 12.75H6.07285Z" fill="#808085"/>
    <path fill-rule="evenodd" clip-rule="evenodd" d="M4.77643 3.30266C4.86542 2.97637 5.16179 2.75 5.50001 2.75H14.5C14.8382 2.75 15.1346 2.97637 15.2236 3.30266L16.7236 8.80266C16.7851 9.02818 16.7379 9.26948 16.596 9.45525C16.4541 9.64101 16.2338 9.75 16 9.75H4.00001C3.76625 9.75 3.54586 9.64101 3.40398 9.45525C3.26209 9.26948 3.21493 9.02818 3.27643 8.80266L4.77643 3.30266ZM6.07285 4.25L4.98194 8.25H15.0181L13.9272 4.25H6.07285Z" fill="#808085"/>
</svg>
