<svg width="20" height="21" viewBox="0 0 20 21" fill="none" xmlns="http://www.w3.org/2000/svg">
    <path fill-rule="evenodd" clip-rule="evenodd" d="M9.99995 13.5C11.6568 13.5 13 12.1569 13 10.5C13 8.84315 11.6568 7.5 9.99995 7.5C8.3431 7.5 6.99995 8.84315 6.99995 10.5C6.99995 12.1569 8.3431 13.5 9.99995 13.5ZM11.5 10.5C11.5 11.3284 10.8284 12 9.99995 12C9.17153 12 8.49995 11.3284 8.49995 10.5C8.49995 9.67157 9.17153 9 9.99995 9C10.8284 9 11.5 9.67157 11.5 10.5Z" fill="#808085"/>
    <path fill-rule="evenodd" clip-rule="evenodd" d="M9.99996 17C5.84953 17 3.14648 13.7906 1.23009 10.916C1.06214 10.6641 1.06214 10.3359 1.23009 10.084C3.14648 7.20939 5.84953 4 9.99996 4C14.1504 4 16.8534 7.20939 18.7698 10.084C18.9378 10.3359 18.9378 10.6641 18.7698 10.916C16.8534 13.7906 14.1504 17 9.99996 17ZM9.99996 5.5C6.86222 5.5 4.62137 7.8 2.76008 10.5C4.62137 13.2 6.86222 15.5 9.99996 15.5C13.1377 15.5 15.3785 13.2 17.2398 10.5C15.3785 7.8 13.1377 5.5 9.99996 5.5Z" fill="#808085"/>
</svg>
