<svg width="20" height="21" viewBox="0 0 20 21" fill="none" xmlns="http://www.w3.org/2000/svg">
    <path fill-rule="evenodd" clip-rule="evenodd" d="M1.66675 10.5C1.66675 5.89759 5.39771 2.16663 10.0001 2.16663C14.6025 2.16663 18.3334 5.89759 18.3334 10.5C18.3334 13.3524 16.9003 15.87 14.7149 17.3723C14.8897 17.525 15.0001 17.7496 15.0001 18C15.0001 18.4602 14.627 18.8333 14.1667 18.8333L10.0001 18.8333H5.83342C5.37318 18.8333 5.00008 18.4602 5.00008 18C5.00008 17.7496 5.1105 17.525 5.2853 17.3722C3.09984 15.87 1.66675 13.3523 1.66675 10.5ZM6.77008 16.3333L13.2301 16.3333C15.2796 15.196 16.6667 13.01 16.6667 10.5C16.6667 6.81806 13.682 3.83329 10.0001 3.83329C6.31818 3.83329 3.33341 6.81806 3.33341 10.5C3.33341 13.01 4.72056 15.196 6.77008 16.3333ZM13.3334 7.99996C13.3334 8.92043 12.5872 9.66663 11.6667 9.66663C10.7463 9.66663 10.0001 8.92043 10.0001 7.99996C10.0001 7.07948 10.7463 6.33329 11.6667 6.33329C12.5872 6.33329 13.3334 7.07948 13.3334 7.99996ZM7.91675 13.8333C8.6071 13.8333 9.16675 13.2736 9.16675 12.5833C9.16675 11.8929 8.6071 11.3333 7.91675 11.3333C7.22639 11.3333 6.66675 11.8929 6.66675 12.5833C6.66675 13.2736 7.22639 13.8333 7.91675 13.8333Z" fill="#808085"/>
</svg>
