<svg width="20" height="21" viewBox="0 0 20 21" fill="none" xmlns="http://www.w3.org/2000/svg">
    <path fill-rule="evenodd" clip-rule="evenodd" d="M5.5 4H6.99999V3.5C6.99999 2.94772 7.4477 2.5 7.99999 2.5H12C12.5523 2.5 13 2.94772 13 3.5V4H14.5C15.6046 4 16.5 4.89543 16.5 6V16.5C16.5 17.6046 15.6046 18.5 14.5 18.5H5.5C4.39543 18.5 3.5 17.6046 3.5 16.5V6C3.5 4.89543 4.39543 4 5.5 4ZM13 6V5.5H14.5C14.7761 5.5 15 5.72386 15 6V16.5C15 16.7761 14.7761 17 14.5 17H5.5C5.22386 17 5 16.7761 5 16.5V6C5 5.72386 5.22386 5.5 5.5 5.5H6.99999V6C6.99999 6.55228 7.4477 7 7.99999 7H12C12.5523 7 13 6.55228 13 6ZM8.49999 4V5.5H11.5V4H8.49999Z" fill="#808085"/>
</svg>
