<svg width="20" height="21" viewBox="0 0 20 21" fill="none" xmlns="http://www.w3.org/2000/svg">
    <path d="M12.7499 18.49C12.3357 18.49 11.9999 18.1542 11.9999 17.74C11.9999 17.3258 12.3357 16.99 12.7499 16.99H15.3769L12.2501 13.8104L12.0001 13.5606C11.7071 13.2678 11.707 12.7929 11.9999 12.4999C12.2927 12.2069 12.7675 12.2068 13.0605 12.4997L13.3108 12.7498L16.4999 15.9924L16.4999 13.2499C16.4999 12.8357 16.8357 12.4999 17.2499 12.4999C17.6641 12.4999 17.9999 12.8357 17.9999 13.2499L17.9999 17.74C17.9999 18.1542 17.6641 18.49 17.2499 18.49H12.7499Z" fill="#808085"/>
    <path d="M7.25004 18.49C7.66426 18.49 8.00004 18.1542 8.00004 17.74C8.00004 17.3258 7.66426 16.99 7.25004 16.99H4.62303L7.74986 13.8104L7.99984 13.5606C8.29281 13.2677 8.29292 12.7929 8.0001 12.4999C7.70728 12.2069 7.23241 12.2068 6.93944 12.4997L6.68918 12.7498L3.5 15.9924L3.50001 13.2499C3.50001 12.8357 3.16423 12.4999 2.75001 12.4999C2.3358 12.4999 2.00001 12.8357 2.00001 13.2499L2 17.74C2 18.1542 2.33579 18.49 2.75 18.49H7.25004Z" fill="#808085"/>
    <path d="M12.7496 2.5C12.3354 2.5 11.9996 2.83579 11.9996 3.25C11.9996 3.66421 12.3354 4 12.7496 4H15.3766L11.9397 7.43905C11.6467 7.73187 11.6466 8.20675 11.9394 8.49971C12.2323 8.79268 12.7071 8.79279 13.0001 8.49997L16.4997 4.99766L16.4997 7.74013C16.4997 8.15435 16.8354 8.49013 17.2497 8.49013C17.6639 8.49013 17.9997 8.15435 17.9997 7.74013L17.9997 3.25C17.9997 2.83579 17.6639 2.5 17.2497 2.5H12.7496Z" fill="#808085"/>
    <path d="M7.25029 2.5C7.6645 2.5 8.00029 2.83579 8.00029 3.25C8.00029 3.66421 7.6645 4 7.25029 4H4.62327L7.75037 7.25015L8.00035 7.50001C8.29331 7.79283 8.29343 8.26771 8.00061 8.56067C7.70778 8.85364 7.23291 8.85375 6.93995 8.56093L6.68968 8.31079L3.50024 4.99766L3.50026 7.74013C3.50026 8.15434 3.16447 8.49013 2.75026 8.49013C2.33604 8.49013 2.00026 8.15434 2.00026 7.74013L2.00024 3.25C2.00024 2.83579 2.33603 2.5 2.75024 2.5H7.25029Z" fill="#808085"/>
</svg>
