<svg width="20" height="21" viewBox="0 0 20 21" fill="none" xmlns="http://www.w3.org/2000/svg">
    <path d="M8.75 5.25C8.33579 5.25 8 5.58579 8 6C8 6.41421 8.33579 6.75 8.75 6.75L16.2501 6.75C16.6643 6.75 17.0001 6.41421 17.0001 6C17.0001 5.58579 16.6643 5.25 16.2501 5.25L8.75 5.25Z" fill="#808085"/>
    <path d="M3.75 5.25C3.33579 5.25 3 5.58579 3 6C3 6.41421 3.33579 6.75 3.75 6.75L5.25 6.75C5.66421 6.75 6 6.41421 6 6C6 5.58579 5.66421 5.25 5.25 5.25L3.75 5.25Z" fill="#808085"/>
    <path d="M11.2501 14.25C11.6643 14.25 12.0001 14.5858 12.0001 15C12.0001 15.4142 11.6643 15.75 11.2501 15.75H3.75C3.33579 15.75 3 15.4142 3 15C3 14.5858 3.33579 14.25 3.75 14.25H11.2501Z" fill="#808085"/>
    <path d="M16.2501 14.25C16.6643 14.25 17.0001 14.5858 17.0001 15C17.0001 15.4142 16.6643 15.75 16.2501 15.75L14.7501 15.75C14.3359 15.75 14.0001 15.4142 14.0001 15C14.0001 14.5858 14.3359 14.25 14.7501 14.25L16.2501 14.25Z" fill="#808085"/>
    <path d="M11 10.5C11 10.0858 11.3358 9.75 11.75 9.75H16.25C16.6642 9.75 17 10.0858 17 10.5C17 10.9142 16.6642 11.25 16.25 11.25H11.75C11.3358 11.25 11 10.9142 11 10.5Z" fill="#808085"/>
    <path d="M3 10.5C3 10.0858 3.33579 9.75 3.75 9.75H8.25C8.66421 9.75 9 10.0858 9 10.5C9 10.9142 8.66421 11.25 8.25 11.25H3.75C3.33579 11.25 3 10.9142 3 10.5Z" fill="#808085"/>
</svg>
