<svg width="20" height="21" viewBox="0 0 20 21" fill="none" xmlns="http://www.w3.org/2000/svg">
    <path d="M14 10.5C14 10.9142 13.6642 11.25 13.25 11.25H10.75V13.75C10.75 14.1642 10.4142 14.5 10 14.5C9.58579 14.5 9.25 14.1642 9.25 13.75V11.25H6.75C6.33579 11.25 6 10.9142 6 10.5C6 10.0858 6.33579 9.75 6.75 9.75H9.25V7.25C9.25 6.83579 9.58579 6.5 10 6.5C10.4142 6.5 10.75 6.83579 10.75 7.25V9.75H13.25C13.6642 9.75 14 10.0858 14 10.5Z" fill="#808085"/>
    <path fill-rule="evenodd" clip-rule="evenodd" d="M18 10.5C18 14.9183 14.4183 18.5 10 18.5C5.58172 18.5 2 14.9183 2 10.5C2 6.08172 5.58172 2.5 10 2.5C14.4183 2.5 18 6.08172 18 10.5ZM10 17C13.5899 17 16.5 14.0899 16.5 10.5C16.5 6.91015 13.5899 4 10 4C6.41015 4 3.5 6.91015 3.5 10.5C3.5 14.0899 6.41015 17 10 17Z" fill="#808085"/>
</svg>
