<svg width="24" height="24" viewBox="0 0 24 24" fill="none" xmlns="http://www.w3.org/2000/svg">
    <path fill-rule="evenodd" clip-rule="evenodd" d="M3 4C3 2.89543 3.89543 2 5 2H19C20.1046 2 21 2.89543 21 4V20C21 21.1046 20.1046 22 19 22H5C3.89543 22 3 21.1046 3 20V4ZM19 4L5 4V20H19V4Z" fill="#808085"/>
    <path fill-rule="evenodd" clip-rule="evenodd" d="M20 13H4V11H20V13Z" fill="#808085"/>
    <path fill-rule="evenodd" clip-rule="evenodd" d="M12 7.5C12 6.94772 12.4477 6.5 13 6.5H16C16.5523 6.5 17 6.94772 17 7.5C17 8.05228 16.5523 8.5 16 8.5H13C12.4477 8.5 12 8.05228 12 7.5ZM12 16.5C12 15.9477 12.4477 15.5 13 15.5H16C16.5523 15.5 17 15.9477 17 16.5C17 17.0523 16.5523 17.5 16 17.5H13C12.4477 17.5 12 17.0523 12 16.5Z" fill="#808085"/>
</svg>
