<svg width="20" height="21" viewBox="0 0 20 21" fill="none" xmlns="http://www.w3.org/2000/svg">
    <path d="M9.49994 13.5C9.49994 14.0523 9.05223 14.5 8.49994 14.5C7.94766 14.5 7.49994 14.0523 7.49994 13.5C7.49994 12.9477 7.94766 12.5 8.49994 12.5C9.05223 12.5 9.49994 12.9477 9.49994 13.5Z" fill="#808085"/>
    <path d="M11.9999 15.5C12.5522 15.5 12.9999 15.0523 12.9999 14.5C12.9999 13.9477 12.5522 13.5 11.9999 13.5C11.4477 13.5 10.9999 13.9477 10.9999 14.5C10.9999 15.0523 11.4477 15.5 11.9999 15.5Z" fill="#808085"/>
    <path fill-rule="evenodd" clip-rule="evenodd" d="M6.99994 4V7.5L3.28522 15.6724C2.68331 16.9966 3.65137 18.5 5.10595 18.5H14.8939C16.3485 18.5 17.3166 16.9966 16.7147 15.6724L12.9999 7.5V4H13.4999C13.9142 4 14.2499 3.66421 14.2499 3.25C14.2499 2.83579 13.9142 2.5 13.4999 2.5H6.49994C6.08573 2.5 5.74994 2.83579 5.74994 3.25C5.74994 3.66421 6.08573 4 6.49994 4H6.99994ZM8.49994 7.82491L7.6249 9.75H12.375L11.4999 7.82491V4H8.49994V7.82491ZM4.65077 16.2931L6.94309 11.25H13.0568L15.3491 16.2931C15.4996 16.6241 15.2576 17 14.8939 17H5.10595C4.74231 17 4.50029 16.6241 4.65077 16.2931Z" fill="#808085"/>
</svg>
