<svg width="20" height="21" viewBox="0 0 20 21" fill="none" xmlns="http://www.w3.org/2000/svg">
    <path fill-rule="evenodd" clip-rule="evenodd" d="M9.29294 7C9.68347 6.60948 10.3166 6.60948 10.7072 7L13.5356 9.82843C13.9261 10.219 13.9261 10.8521 13.5356 11.2426L10.7072 14.0711C10.3166 14.4616 9.68347 14.4616 9.29294 14.0711L6.46452 11.2426C6.07399 10.8521 6.07399 10.219 6.46452 9.82843L9.29294 7ZM7.87873 10.5355L10.0001 8.41421L12.1214 10.5355L10.0001 12.6569L7.87873 10.5355Z" fill="#808085"/>
    <path fill-rule="evenodd" clip-rule="evenodd" d="M10 18.5C14.4183 18.5 18 14.9183 18 10.5C18 6.08172 14.4183 2.5 10 2.5C5.58172 2.5 2 6.08172 2 10.5C2 14.9183 5.58172 18.5 10 18.5ZM16.5 10.5C16.5 14.0899 13.5899 17 10 17C6.41015 17 3.5 14.0899 3.5 10.5C3.5 6.91015 6.41015 4 10 4C13.5899 4 16.5 6.91015 16.5 10.5Z" fill="#808085"/>
</svg>
