<svg width="20" height="21" viewBox="0 0 20 21" fill="none" xmlns="http://www.w3.org/2000/svg">
    <path fill-rule="evenodd" clip-rule="evenodd" d="M2 5.75V15.5C2 16.6046 2.89543 17.5 4 17.5H16C17.1046 17.5 18 16.6046 18 15.5V8.5C18 7.39543 17.1046 6.5 16 6.5H15V5.5C15 4.39543 14.1046 3.5 13 3.5H4.25C3.00736 3.5 2 4.50736 2 5.75ZM13.5 6.5V5.5C13.5 5.22386 13.2761 5 13 5H4.25C3.83579 5 3.5 5.33579 3.5 5.75C3.5 6.16421 3.83579 6.5 4.25 6.5H13.5ZM16.5 9.5V8.5C16.5 8.22386 16.2761 8 16 8H3.5V15.5C3.5 15.7761 3.72386 16 4 16H16C16.2761 16 16.5 15.7761 16.5 15.5V14.5H15.5C14.1193 14.5 13 13.3807 13 12C13 10.6193 14.1193 9.5 15.5 9.5H16.5ZM16.5 13V11H15.5C14.9477 11 14.5 11.4477 14.5 12C14.5 12.5523 14.9477 13 15.5 13H16.5Z" fill="#808085"/>
</svg>
