<svg width="20" height="21" viewBox="0 0 20 21" fill="none" xmlns="http://www.w3.org/2000/svg">
    <path fill-rule="evenodd" clip-rule="evenodd" d="M3.5 4V8H7.5V4H3.5ZM3 2.5C2.44772 2.5 2 2.94772 2 3.5V8.5C2 9.05228 2.44772 9.5 3 9.5H8C8.55228 9.5 9 9.05228 9 8.5V3.5C9 2.94772 8.55228 2.5 8 2.5H3Z" fill="#808085"/>
    <path fill-rule="evenodd" clip-rule="evenodd" d="M3.5 13V17H7.5V13H3.5ZM3 11.5C2.44772 11.5 2 11.9477 2 12.5V17.5C2 18.0523 2.44772 18.5 3 18.5H8C8.55228 18.5 9 18.0523 9 17.5V12.5C9 11.9477 8.55228 11.5 8 11.5H3Z" fill="#808085"/>
    <path fill-rule="evenodd" clip-rule="evenodd" d="M12.5 13V17H16.5V13H12.5ZM12 11.5C11.4477 11.5 11 11.9477 11 12.5V17.5C11 18.0523 11.4477 18.5 12 18.5H17C17.5523 18.5 18 18.0523 18 17.5V12.5C18 11.9477 17.5523 11.5 17 11.5H12Z" fill="#808085"/>
    <path fill-rule="evenodd" clip-rule="evenodd" d="M12.5 4V8H16.5V4H12.5ZM12 2.5C11.4477 2.5 11 2.94772 11 3.5V8.5C11 9.05228 11.4477 9.5 12 9.5H17C17.5523 9.5 18 9.05228 18 8.5V3.5C18 2.94772 17.5523 2.5 17 2.5H12Z" fill="#808085"/>
</svg>
